# xmcd CD database file
#
# Track frame offsets:
#	150
#	15845
#	37383
#	67234
#	88582
#	102066
#	127724
#	159426
#	196431
#
# Disc length: 2716 seconds
#
# Revision: 0
# Processed by: cddbd v1.5.1PL0 Copyright (c) Steve Scherf et al.
# Submitted via: CDex 1.50
#
DISCID=6d0a9a09
DTITLE=Stephen DiJoseph - Pianopoetry
DYEAR=1900
DGENRE=Jazz
TTITLE0=Blackbird
TTITLE1=Exposure Five
TTITLE2=Singing in the Piano
TTITLE3=Clepsydra
TTITLE4=Feeble Weeble
TTITLE5=Scarborough Fair
TTITLE6=Don't you ever stop?
TTITLE7=Recollection
TTITLE8=One last thought
EXTD=
EXTT0=
EXTT1=
EXTT2=
EXTT3=
EXTT4=
EXTT5=
EXTT6=
EXTT7=
EXTT8=
PLAYORDER=
